<svg width="46" height="64" viewBox="0 0 46 64" fill="none" xmlns="http://www.w3.org/2000/svg">
<g clip-path="url(#clip0)">
<path d="M45.3418 12.5775L41.211 58.8524L22.6431 64L4.12638 58.8596L7.62939e-06 12.5775H45.3418Z" fill="#264DE4"/>
<path d="M37.6746 55.9058L41.2046 16.3618H22.6709V60.0654L37.6746 55.9058Z" fill="#2965F1"/>
<path d="M9.45963 33.5271L9.96838 39.2034H22.6709V33.5271H9.45963Z" fill="#EBEBEB"/>
<path d="M22.6709 22.0381H22.6512H8.43737L8.95337 27.7145H22.6709V22.0381Z" fill="#EBEBEB"/>
<path d="M22.6709 54.1749V48.2691L22.646 48.2757L16.3243 46.5687L15.9201 42.0416H12.8483H10.222L11.0173 50.9543L22.6448 54.1821L22.6709 54.1749Z" fill="#EBEBEB"/>
<path d="M10.6709 0H17.5459V2.875H13.5459V5.75H17.5459V8.625H10.6709V0Z" fill="black"/>
<path d="M18.9209 0H25.7959V2.5H21.7959V3H25.7959V8.75H18.9209V6.125H22.9209V5.625H18.9209V0Z" fill="black"/>
<path d="M27.1709 0H34.0459V2.5H30.0459V3H34.0459V8.75H27.1709V6.125H31.1709V5.625H27.1709V0Z" fill="black"/>
<path d="M29.641 39.2033L28.9821 46.5651L22.6513 48.2738V54.1793L34.288 50.9542L34.3734 49.9952L35.7073 35.0513L35.8458 33.5271L36.8705 22.0381H22.6513V27.7145H30.6498L30.1333 33.5271H22.6513V39.2033H29.641Z" fill="white"/>
</g>
<defs>
<clipPath id="clip0">
<rect width="45.3418" height="64" fill="white"/>
</clipPath>
</defs>
</svg>
