<svg width="41" height="64" viewBox="0 0 41 64" fill="none" xmlns="http://www.w3.org/2000/svg">
<g clip-path="url(#clip0)">
<path d="M4.49328 63.7262V58.1616C4.49328 57.7693 4.20567 57.6001 3.86662 57.6001C3.18692 57.6001 2.33798 57.7693 1.56723 58.109V63.7262H0V53.394H1.56723V56.8027C2.31211 56.5287 3.20021 56.2938 4.08847 56.2938C5.51218 56.2938 6.04779 57.169 6.04779 58.3701V63.7262H4.49328V63.7262ZM8.97312 60.3562C9.0253 62.2241 9.39123 62.5899 10.5402 62.5899C11.4416 62.5899 12.4605 62.2893 13.2444 61.9888L13.5056 63.1642C12.6695 63.5435 11.6507 63.9089 10.4363 63.9089C7.82344 63.9089 7.41833 62.4724 7.41833 60.1861C7.41833 58.9325 7.5101 57.7958 7.81042 56.7509C8.59403 56.4504 9.6391 56.2938 10.958 56.2938C13.1009 56.2938 13.7537 57.4826 13.7537 59.5593V60.3562H8.97312V60.3562ZM10.958 57.6001C10.4885 57.6001 9.74359 57.6131 9.12979 57.7302C9.06475 58.0438 8.98599 58.4749 8.95983 59.2718H12.2254C12.2254 58.1874 12.0294 57.6001 10.958 57.6001ZM16.6921 58.109V63.7262H15.1245V57.4039C16.4439 56.6857 17.8415 56.4635 18.7562 56.3982V57.7045C18.1161 57.7567 17.3059 57.835 16.6921 58.109ZM22.8965 63.9089C20.558 63.9089 19.5 62.7596 19.5 60.134C19.5 57.3517 20.8976 56.2938 22.8965 56.2938C25.2344 56.2938 26.2926 57.443 26.2926 60.0687C26.2926 62.851 24.8947 63.9089 22.8965 63.9089ZM22.8965 57.6001C21.6945 57.6001 21.0285 58.2921 21.0285 60.134C21.0285 62.1458 21.5902 62.59 22.8965 62.59C24.098 62.59 24.7644 61.9105 24.7644 60.0687C24.7644 58.0568 24.2026 57.6001 22.8965 57.6001ZM33.8549 63.7262H32.013C31.5822 62.5769 30.981 61.4011 30.0536 60.3823H29.2306V63.7262H27.6633V53.394H29.2306V59.324H29.9622C30.759 58.501 31.3728 57.4826 31.804 56.4765H33.5672C32.9666 57.6914 32.196 58.7624 31.3338 59.6376C32.3658 60.9439 33.1756 62.3285 33.8549 63.7262ZM36.7929 63.9089C35.3695 63.9089 34.8339 63.0341 34.8339 61.8322V56.4765H36.3881V62.028C36.3881 62.4203 36.6753 62.5899 37.0149 62.5899C37.6942 62.5899 38.6216 62.4203 39.3926 62.0806V56.4765H40.96V62.7726C39.1052 63.7915 37.6812 63.9089 36.7929 63.9089Z" fill="#6762A6"/>
<path d="M36.1004 50.7604H4.84114C2.16732 50.7604 0 48.5933 0 45.9197V4.84096C0 2.16732 2.16732 0 4.84114 0H36.1004C38.7738 0 40.942 2.16732 40.942 4.84096V45.9197C40.942 48.5933 38.7738 50.7604 36.1004 50.7604Z" fill="#6762A6"/>
<path d="M25.6577 43.7761V23.6176C25.6577 23.6176 26.9688 18.7936 9.50665 25.591C9.4747 25.6772 9.4747 6.95036 9.4747 6.95036L15.1802 6.91534V18.9138C15.1802 18.9138 31.1557 12.6217 31.1557 23.6856V43.7762H25.6577V43.7761ZM28.9089 14.177H22.857C25.0353 11.5136 27.0073 6.9503 27.0073 6.9503H33.2648C33.2648 6.95033 32.1937 9.92408 28.9089 14.177ZM9.57829 43.7411V32.2614L15.3186 38.0018L9.57829 43.7411Z" fill="white"/>
</g>
<defs>
<clipPath id="clip0">
<rect width="40.96" height="64" fill="white"/>
</clipPath>
</defs>
</svg>
