<svg width="48" height="64" viewBox="0 0 48 64" fill="none" xmlns="http://www.w3.org/2000/svg">
<g clip-path="url(#clip0)">
<path d="M15.2701 49.4747C15.2701 49.4747 12.8288 50.8945 17.0075 51.3749C22.0699 51.9524 24.6573 51.8696 30.2361 50.8137C30.2361 50.8137 31.7028 51.7334 33.7512 52.5299C21.2449 57.8899 5.44709 52.2195 15.2701 49.4747Z" fill="#5382A1"/>
<path d="M13.7419 42.4803C13.7419 42.4803 11.0037 44.5072 15.1855 44.9397C20.5934 45.4976 24.8641 45.5432 32.254 44.1202C32.254 44.1202 33.2761 45.1565 34.8834 45.7232C19.7626 50.1447 2.92069 46.0719 13.7419 42.4803Z" fill="#5382A1"/>
<path d="M26.6251 30.6154C29.7066 34.1633 25.8154 37.3559 25.8154 37.3559C25.8154 37.3559 33.64 33.3166 30.0465 28.2585C26.6903 23.5415 24.1166 21.1978 38.0498 13.117C38.0498 13.117 16.1793 18.5793 26.6251 30.6154Z" fill="#E76F00"/>
<path d="M43.1656 54.6482C43.1656 54.6482 44.9722 56.1368 41.1759 57.2884C33.9572 59.4752 11.1306 60.1356 4.7895 57.3755C2.51003 56.3839 6.78468 55.0077 8.12932 54.719C9.53165 54.4149 10.333 54.4715 10.333 54.4715C7.79803 52.6857 -6.05218 57.978 3.29781 59.4936C28.7966 63.6288 49.7796 57.6316 43.1656 54.6482Z" fill="#5382A1"/>
<path d="M16.4441 35.2333C16.4441 35.2333 4.83307 37.9911 12.3323 38.9926C15.4988 39.4165 21.811 39.3206 27.6906 38.828C32.4958 38.4226 37.3207 37.5608 37.3207 37.5608C37.3207 37.5608 35.6264 38.2864 34.4006 39.1234C22.6098 42.2244 -0.167879 40.7818 6.38951 37.6099C11.9351 34.9292 16.4441 35.2333 16.4441 35.2333Z" fill="#5382A1"/>
<path d="M37.2729 46.8758C49.2588 40.6475 43.717 34.6621 39.8489 35.4685C38.9008 35.6658 38.478 35.8368 38.478 35.8368C38.478 35.8368 38.83 35.2855 39.5022 35.0468C47.1546 32.3565 53.0397 42.9815 37.032 47.1897C37.032 47.1899 37.2174 47.0241 37.2729 46.8758Z" fill="#5382A1"/>
<path d="M30.0465 0.0687256C30.0465 0.0687256 36.6845 6.70894 23.7507 16.9197C13.3791 25.1105 21.3856 29.7807 23.7464 35.1165C17.6923 29.6543 13.2494 24.8458 16.2301 20.3706C20.6049 13.8013 32.7248 10.6163 30.0465 0.0687256Z" fill="#E76F00"/>
<path d="M17.6219 63.7531C29.1268 64.4896 46.794 63.3445 47.2124 57.9007C47.2124 57.9007 46.4081 59.9644 37.7042 61.6033C27.8845 63.4513 15.7732 63.2355 8.58993 62.0512C8.5901 62.051 10.0604 63.2682 17.6219 63.7531Z" fill="#5382A1"/>
</g>
<defs>
<clipPath id="clip0">
<rect width="47.3526" height="64" fill="white"/>
</clipPath>
</defs>
</svg>
