<svg width="64" height="64" viewBox="0 0 64 64" fill="none" xmlns="http://www.w3.org/2000/svg">
<path d="M31.729 0.0181427C15.5209 0.0181439 16.533 7.0745 16.533 7.0745L16.5511 14.3848H32.0181V16.5797H10.4077C10.4077 16.5797 0.0361366 15.3989 0.0361366 31.8171C0.0361355 48.2353 9.08865 47.6531 9.08865 47.6531H14.4912V40.0344C14.4912 40.0344 14.2 30.9464 23.3992 30.9464H38.7397C38.7397 30.9464 47.3586 31.0863 47.3586 22.584V8.52568C47.3586 8.52568 48.6671 0.0181427 31.729 0.0181427ZM23.2005 4.93401C24.7393 4.93401 25.9831 6.18265 25.9831 7.72754C25.9831 9.27242 24.7393 10.5211 23.2005 10.5211C21.6616 10.5211 20.4178 9.27242 20.4178 7.72754C20.4178 6.18265 21.6616 4.93401 23.2005 4.93401Z" fill="url(#paint0_linear)"/>
<path d="M32.1893 63.7807C48.3973 63.7807 47.3852 56.7244 47.3852 56.7244L47.3671 49.414H31.9002V47.2191H53.5106C53.5106 47.2191 63.8821 48.4 63.8821 31.9817C63.8821 15.5635 54.8296 16.1457 54.8296 16.1457H49.427V23.7644C49.427 23.7644 49.7182 32.8524 40.519 32.8524H25.1785C25.1785 32.8524 16.5597 32.7126 16.5597 41.2149V55.2732C16.5597 55.2732 15.2511 63.7807 32.1893 63.7807ZM40.7178 58.8649C39.1789 58.8649 37.9352 57.6162 37.9352 56.0713C37.9352 54.5264 39.1789 53.2778 40.7178 53.2778C42.2566 53.2778 43.5004 54.5264 43.5004 56.0713C43.5004 57.6162 42.2566 58.8649 40.7178 58.8649Z" fill="url(#paint1_linear)"/>
<defs>
<linearGradient id="paint0_linear" x1="6.17186" y1="5.75341" x2="37.9342" y2="37.076" gradientUnits="userSpaceOnUse">
<stop stop-color="#387EB8"/>
<stop offset="1" stop-color="#366994"/>
</linearGradient>
<linearGradient id="paint1_linear" x1="25.5923" y1="25.9466" x2="59.6955" y2="58.0595" gradientUnits="userSpaceOnUse">
<stop stop-color="#FFE052"/>
<stop offset="1" stop-color="#FFC331"/>
</linearGradient>
</defs>
</svg>
